# xmcd CD database file
#
# Track frame offsets:
#	150
#	14734
#	28878
#	53750
#	72536
#	90793
#	104611
#	122352
#	136647
#	150916
#	170965
#	186740
#	202249
#	222048
#
# Disc length: 3150 seconds
#
# Revision: 0
# Processed by: cddbd v1.5.2PL0 Copyright (c) Steve Scherf et al.
# Submitted via: CDex 1.70beta2
#
DISCID=ca0c4c0e
DTITLE=Dan Hicks - Selected Shorts
DYEAR=2004
DGENRE=Jazz
TTITLE0=Mama's Boy Blues
TTITLE1=That's Where I Am
TTITLE2=Hey Bartender
TTITLE3=Willie
TTITLE4=One More Cowboy
TTITLE5=Barstool Boogie
TTITLE6=C'mon-A-My House
TTITLE7=First I Lost My Marbles
TTITLE8=That Ain't Right
TTITLE9=Cue The Violins
TTITLE10=I'll See You in My Dreams
TTITLE11=Texas Kinda Attitude
TTITLE12=That's the Smoke They're Blowin'
TTITLE13=That Ain't Right
EXTD=YEAR: 2004
EXTT0=
EXTT1=
EXTT2=
EXTT3=
EXTT4=
EXTT5=
EXTT6=
EXTT7=
EXTT8=
EXTT9=
EXTT10=
EXTT11=
EXTT12=
EXTT13=
PLAYORDER=
